<svg width="1045" height="580" viewBox="0 0 1045 580" fill="none" xmlns="http://www.w3.org/2000/svg">
<g clip-path="url(#clip0_43_576)">
<rect width="1018.85" height="510.428" transform="translate(25.3065 15.7324)" fill="white"/>
<line x1="-8.78522" y1="88.2324" x2="1078.25" y2="88.2324" stroke="#DDDEE1"/>
<line x1="-8.78522" y1="161.232" x2="1078.25" y2="161.232" stroke="#DDDEE1"/>
<line x1="-8.78522" y1="234.232" x2="1078.25" y2="234.232" stroke="#DDDEE1"/>
<line x1="-8.78522" y1="307.232" x2="1078.25" y2="307.232" stroke="#BFCBD1"/>
</g>
<path d="M27.4659 544.273H28.2628V550.567C28.2599 551.135 28.1577 551.609 27.956 551.99C27.7543 552.368 27.4759 552.651 27.1207 552.838C26.7656 553.026 26.358 553.119 25.8977 553.119C25.446 553.119 25.0426 553.036 24.6875 552.868C24.3324 552.7 24.0526 552.464 23.848 552.161C23.6463 551.857 23.5455 551.5 23.5455 551.091H24.3295C24.3295 551.349 24.3977 551.578 24.5341 551.777C24.6705 551.973 24.8565 552.126 25.0923 552.237C25.331 552.348 25.5994 552.403 25.8977 552.403C26.2074 552.403 26.4787 552.338 26.7116 552.207C26.9474 552.077 27.1321 551.876 27.2656 551.607C27.3991 551.334 27.4659 550.987 27.4659 550.567V544.273ZM34.5824 550.499V546.455H35.3409V553H34.5824V551.913H34.5227C34.3693 552.249 34.1264 552.528 33.794 552.753C33.4616 552.974 33.0554 553.085 32.5753 553.085C32.1577 553.085 31.7869 552.994 31.4631 552.812C31.1392 552.628 30.8849 552.358 30.7003 552.003C30.5156 551.648 30.4233 551.212 30.4233 550.695V546.455H31.1818V550.648C31.1818 551.159 31.3324 551.571 31.6335 551.884C31.9347 552.193 32.321 552.348 32.7926 552.348C33.0881 552.348 33.3722 552.277 33.6449 552.135C33.9176 551.993 34.142 551.786 34.3182 551.513C34.4943 551.237 34.5824 550.899 34.5824 550.499ZM38.1076 544.273V553H37.3491V544.273H38.1076ZM46.1531 544.273V553H45.3562V545.108H45.305L43.2596 546.467V545.641L45.3221 544.273H46.1531Z" fill="black"/>
<line x1="37.5" y1="536" x2="37.5" y2="526" stroke="#BFCBD1"/>
<path d="M133.746 544.273H134.543V550.567C134.54 551.135 134.438 551.609 134.236 551.99C134.034 552.368 133.756 552.651 133.401 552.838C133.046 553.026 132.638 553.119 132.178 553.119C131.726 553.119 131.323 553.036 130.967 552.868C130.612 552.7 130.333 552.464 130.128 552.161C129.926 551.857 129.825 551.5 129.825 551.091H130.61C130.61 551.349 130.678 551.578 130.814 551.777C130.95 551.973 131.137 552.126 131.372 552.237C131.611 552.348 131.879 552.403 132.178 552.403C132.487 552.403 132.759 552.338 132.992 552.207C133.227 552.077 133.412 551.876 133.546 551.607C133.679 551.334 133.746 550.987 133.746 550.567V544.273ZM140.862 550.499V546.455H141.621V553H140.862V551.913H140.803C140.649 552.249 140.406 552.528 140.074 552.753C139.742 552.974 139.335 553.085 138.855 553.085C138.438 553.085 138.067 552.994 137.743 552.812C137.419 552.628 137.165 552.358 136.98 552.003C136.796 551.648 136.703 551.212 136.703 550.695V546.455H137.462V550.648C137.462 551.159 137.612 551.571 137.914 551.884C138.215 552.193 138.601 552.348 139.073 552.348C139.368 552.348 139.652 552.277 139.925 552.135C140.198 551.993 140.422 551.786 140.598 551.513C140.774 551.237 140.862 550.899 140.862 550.499ZM144.388 544.273V553H143.629V544.273H144.388ZM149.74 553V552.416L152.591 549.212C152.963 548.791 153.263 548.432 153.49 548.134C153.717 547.835 153.882 547.56 153.984 547.307C154.089 547.054 154.142 546.791 154.142 546.518C154.142 546.186 154.064 545.896 153.907 545.649C153.754 545.399 153.542 545.205 153.273 545.065C153.003 544.926 152.699 544.857 152.361 544.857C152.003 544.857 151.689 544.933 151.419 545.087C151.152 545.24 150.944 545.45 150.797 545.717C150.649 545.984 150.575 546.291 150.575 546.638H149.812C149.812 546.155 149.923 545.727 150.145 545.355C150.369 544.98 150.675 544.686 151.061 544.473C151.45 544.26 151.89 544.153 152.382 544.153C152.868 544.153 153.3 544.259 153.677 544.469C154.055 544.676 154.352 544.959 154.568 545.317C154.784 545.675 154.892 546.075 154.892 546.518C154.892 546.839 154.835 547.151 154.721 547.452C154.611 547.753 154.419 548.088 154.146 548.457C153.873 548.827 153.496 549.278 153.013 549.812L150.848 552.229V552.284H155.165V553H149.74Z" fill="black"/>
<line x1="143.78" y1="536" x2="143.78" y2="526" stroke="#BFCBD1"/>
<path d="M240.026 544.273H240.823V550.567C240.82 551.135 240.718 551.609 240.516 551.99C240.314 552.368 240.036 552.651 239.681 552.838C239.326 553.026 238.918 553.119 238.458 553.119C238.006 553.119 237.603 553.036 237.247 552.868C236.892 552.7 236.613 552.464 236.408 552.161C236.206 551.857 236.105 551.5 236.105 551.091H236.89C236.89 551.349 236.958 551.578 237.094 551.777C237.23 551.973 237.417 552.126 237.652 552.237C237.891 552.348 238.159 552.403 238.458 552.403C238.767 552.403 239.039 552.338 239.272 552.207C239.507 552.077 239.692 551.876 239.826 551.607C239.959 551.334 240.026 550.987 240.026 550.567V544.273ZM247.142 550.499V546.455H247.901V553H247.142V551.913H247.083C246.929 552.249 246.686 552.528 246.354 552.753C246.022 552.974 245.615 553.085 245.135 553.085C244.718 553.085 244.347 552.994 244.023 552.812C243.699 552.628 243.445 552.358 243.26 552.003C243.076 551.648 242.983 551.212 242.983 550.695V546.455H243.742V550.648C243.742 551.159 243.892 551.571 244.194 551.884C244.495 552.193 244.881 552.348 245.353 552.348C245.648 552.348 245.932 552.277 246.205 552.135C246.478 551.993 246.702 551.786 246.878 551.513C247.054 551.237 247.142 550.899 247.142 550.499ZM250.668 544.273V553H249.909V544.273H250.668ZM258.854 553.119C258.317 553.119 257.837 553.023 257.413 552.83C256.99 552.634 256.655 552.362 256.408 552.016C256.16 551.669 256.03 551.27 256.016 550.818H256.821C256.835 551.136 256.933 551.415 257.115 551.653C257.297 551.889 257.538 552.074 257.839 552.207C258.141 552.338 258.476 552.403 258.845 552.403C259.249 552.403 259.604 552.328 259.91 552.178C260.22 552.027 260.462 551.821 260.635 551.56C260.811 551.295 260.899 550.997 260.899 550.665C260.899 550.312 260.81 550.001 260.631 549.732C260.452 549.462 260.195 549.251 259.859 549.101C259.527 548.95 259.129 548.875 258.666 548.875H258.155V548.159H258.666C259.044 548.159 259.378 548.091 259.668 547.955C259.96 547.815 260.19 547.621 260.358 547.371C260.526 547.121 260.609 546.827 260.609 546.489C260.609 546.168 260.537 545.885 260.392 545.641C260.247 545.396 260.043 545.205 259.778 545.065C259.517 544.926 259.212 544.857 258.862 544.857C258.524 544.857 258.214 544.922 257.933 545.053C257.652 545.183 257.425 545.368 257.251 545.607C257.081 545.845 256.99 546.128 256.979 546.455H256.207C256.219 546 256.344 545.601 256.582 545.257C256.824 544.911 257.143 544.641 257.541 544.447C257.942 544.251 258.385 544.153 258.871 544.153C259.385 544.153 259.83 544.259 260.205 544.469C260.58 544.679 260.869 544.959 261.074 545.308C261.281 545.655 261.385 546.037 261.385 546.455C261.385 546.952 261.25 547.378 260.98 547.733C260.71 548.085 260.347 548.33 259.889 548.466V548.521C260.446 548.632 260.884 548.879 261.202 549.263C261.523 549.643 261.683 550.111 261.683 550.665C261.683 551.131 261.561 551.55 261.317 551.922C261.072 552.291 260.737 552.584 260.311 552.8C259.888 553.013 259.402 553.119 258.854 553.119Z" fill="black"/>
<line x1="250.06" y1="536" x2="250.06" y2="526" stroke="#BFCBD1"/>
<path d="M346.306 544.273H347.103V550.567C347.1 551.135 346.998 551.609 346.796 551.99C346.594 552.368 346.316 552.651 345.961 552.838C345.606 553.026 345.198 553.119 344.738 553.119C344.286 553.119 343.883 553.036 343.527 552.868C343.172 552.7 342.893 552.464 342.688 552.161C342.486 551.857 342.385 551.5 342.385 551.091H343.17C343.17 551.349 343.238 551.578 343.374 551.777C343.51 551.973 343.697 552.126 343.932 552.237C344.171 552.348 344.439 552.403 344.738 552.403C345.047 552.403 345.319 552.338 345.552 552.207C345.787 552.077 345.972 551.876 346.106 551.607C346.239 551.334 346.306 550.987 346.306 550.567V544.273ZM353.422 550.499V546.455H354.181V553H353.422V551.913H353.363C353.209 552.249 352.966 552.528 352.634 552.753C352.302 552.974 351.895 553.085 351.415 553.085C350.998 553.085 350.627 552.994 350.303 552.812C349.979 552.628 349.725 552.358 349.54 552.003C349.356 551.648 349.263 551.212 349.263 550.695V546.455H350.022V550.648C350.022 551.159 350.172 551.571 350.474 551.884C350.775 552.193 351.161 552.348 351.633 552.348C351.928 552.348 352.212 552.277 352.485 552.135C352.758 551.993 352.982 551.786 353.158 551.513C353.334 551.237 353.422 550.899 353.422 550.499ZM356.948 544.273V553H356.189V544.273H356.948ZM362.091 551.125V550.477L365.982 544.273H366.459V545.359H366.105L362.982 550.354V550.409H368.083V551.125H362.091ZM366.165 553V550.92V550.622V544.273H366.923V553H366.165Z" fill="black"/>
<line x1="356.34" y1="536" x2="356.34" y2="526" stroke="#BFCBD1"/>
<path d="M452.586 544.273H453.383V550.567C453.38 551.135 453.278 551.609 453.076 551.99C452.874 552.368 452.596 552.651 452.241 552.838C451.886 553.026 451.478 553.119 451.018 553.119C450.566 553.119 450.163 553.036 449.807 552.868C449.452 552.7 449.173 552.464 448.968 552.161C448.766 551.857 448.665 551.5 448.665 551.091H449.45C449.45 551.349 449.518 551.578 449.654 551.777C449.79 551.973 449.977 552.126 450.212 552.237C450.451 552.348 450.719 552.403 451.018 552.403C451.327 552.403 451.599 552.338 451.832 552.207C452.067 552.077 452.252 551.876 452.386 551.607C452.519 551.334 452.586 550.987 452.586 550.567V544.273ZM459.702 550.499V546.455H460.461V553H459.702V551.913H459.643C459.489 552.249 459.246 552.528 458.914 552.753C458.582 552.974 458.175 553.085 457.695 553.085C457.278 553.085 456.907 552.994 456.583 552.812C456.259 552.628 456.005 552.358 455.82 552.003C455.636 551.648 455.543 551.212 455.543 550.695V546.455H456.302V550.648C456.302 551.159 456.452 551.571 456.754 551.884C457.055 552.193 457.441 552.348 457.913 552.348C458.208 552.348 458.492 552.277 458.765 552.135C459.038 551.993 459.262 551.786 459.438 551.513C459.614 551.237 459.702 550.899 459.702 550.499ZM463.228 544.273V553H462.469V544.273H463.228ZM471.132 553.119C470.647 553.119 470.212 553.021 469.828 552.825C469.448 552.626 469.144 552.354 468.917 552.007C468.692 551.661 468.573 551.264 468.559 550.818H469.33C469.355 551.281 469.537 551.662 469.875 551.96C470.213 552.256 470.632 552.403 471.132 552.403C471.522 552.403 471.868 552.311 472.172 552.126C472.476 551.939 472.713 551.683 472.884 551.359C473.057 551.033 473.144 550.665 473.144 550.256C473.141 549.83 473.049 549.455 472.867 549.131C472.685 548.804 472.438 548.548 472.125 548.364C471.816 548.179 471.468 548.087 471.081 548.087C470.789 548.084 470.502 548.132 470.22 548.232C469.939 548.331 469.705 548.459 469.517 548.615L468.72 548.513L469.245 544.273H473.557V544.989H469.914L469.564 547.908H469.607C469.8 547.746 470.034 547.614 470.31 547.511C470.588 547.409 470.882 547.358 471.192 547.358C471.706 547.358 472.168 547.482 472.577 547.729C472.989 547.976 473.314 548.317 473.553 548.751C473.794 549.183 473.915 549.68 473.915 550.243C473.915 550.794 473.794 551.287 473.553 551.722C473.314 552.153 472.985 552.494 472.564 552.744C472.147 552.994 471.669 553.119 471.132 553.119Z" fill="black"/>
<line x1="462.62" y1="536" x2="462.62" y2="526" stroke="#BFCBD1"/>
<path d="M558.866 544.273H559.663V550.567C559.66 551.135 559.558 551.609 559.356 551.99C559.154 552.368 558.876 552.651 558.521 552.838C558.166 553.026 557.758 553.119 557.298 553.119C556.846 553.119 556.443 553.036 556.088 552.868C555.732 552.7 555.453 552.464 555.248 552.161C555.046 551.857 554.945 551.5 554.945 551.091H555.73C555.73 551.349 555.798 551.578 555.934 551.777C556.07 551.973 556.257 552.126 556.492 552.237C556.731 552.348 556.999 552.403 557.298 552.403C557.607 552.403 557.879 552.338 558.112 552.207C558.347 552.077 558.532 551.876 558.666 551.607C558.799 551.334 558.866 550.987 558.866 550.567V544.273ZM565.982 550.499V546.455H566.741V553H565.982V551.913H565.923C565.769 552.249 565.526 552.528 565.194 552.753C564.862 552.974 564.455 553.085 563.975 553.085C563.558 553.085 563.187 552.994 562.863 552.812C562.539 552.628 562.285 552.358 562.1 552.003C561.916 551.648 561.823 551.212 561.823 550.695V546.455H562.582V550.648C562.582 551.159 562.732 551.571 563.034 551.884C563.335 552.193 563.721 552.348 564.193 552.348C564.488 552.348 564.772 552.277 565.045 552.135C565.318 551.993 565.542 551.786 565.718 551.513C565.894 551.237 565.982 550.899 565.982 550.499ZM569.508 544.273V553H568.749V544.273H569.508ZM577.608 553.119C577.248 553.116 576.895 553.044 576.552 552.902C576.208 552.757 575.898 552.526 575.623 552.207C575.347 551.886 575.128 551.463 574.966 550.938C574.804 550.412 574.724 549.766 574.724 548.999C574.724 548.288 574.786 547.638 574.911 547.047C575.036 546.456 575.224 545.945 575.474 545.513C575.724 545.081 576.036 544.747 576.411 544.511C576.786 544.273 577.225 544.153 577.728 544.153C578.199 544.153 578.616 544.251 578.976 544.447C579.337 544.641 579.63 544.911 579.854 545.257C580.079 545.604 580.219 546.003 580.276 546.455H579.492C579.412 545.994 579.224 545.615 578.925 545.317C578.627 545.018 578.228 544.869 577.728 544.869C577.012 544.869 576.458 545.202 576.066 545.866C575.674 546.528 575.476 547.469 575.474 548.688H575.529C575.668 548.429 575.847 548.206 576.066 548.018C576.287 547.828 576.539 547.68 576.82 547.575C577.101 547.467 577.397 547.413 577.706 547.413C578.192 547.413 578.637 547.537 579.04 547.784C579.444 548.028 579.766 548.365 580.008 548.794C580.249 549.22 580.37 549.707 580.37 550.256C580.37 550.776 580.255 551.254 580.025 551.692C579.797 552.129 579.476 552.477 579.062 552.736C578.65 552.994 578.165 553.122 577.608 553.119ZM577.608 552.403C577.989 552.403 578.329 552.307 578.627 552.114C578.928 551.92 579.165 551.662 579.339 551.338C579.512 551.011 579.599 550.651 579.599 550.256C579.599 549.861 579.512 549.503 579.339 549.182C579.165 548.861 578.928 548.605 578.627 548.415C578.329 548.224 577.989 548.129 577.608 548.129C577.319 548.129 577.049 548.189 576.799 548.308C576.549 548.425 576.331 548.585 576.147 548.79C575.965 548.991 575.826 549.223 575.729 549.484C575.635 549.746 575.6 550.02 575.623 550.307C575.654 550.707 575.758 551.067 575.934 551.385C576.113 551.7 576.346 551.949 576.633 552.131C576.922 552.312 577.248 552.403 577.608 552.403Z" fill="black"/>
<line x1="568.9" y1="536" x2="568.9" y2="526" stroke="#BFCBD1"/>
<path d="M665.146 544.273H665.943V550.567C665.94 551.135 665.838 551.609 665.636 551.99C665.434 552.368 665.156 552.651 664.801 552.838C664.446 553.026 664.038 553.119 663.578 553.119C663.126 553.119 662.723 553.036 662.368 552.868C662.012 552.7 661.733 552.464 661.528 552.161C661.326 551.857 661.226 551.5 661.226 551.091H662.01C662.01 551.349 662.078 551.578 662.214 551.777C662.351 551.973 662.537 552.126 662.772 552.237C663.011 552.348 663.279 552.403 663.578 552.403C663.887 552.403 664.159 552.338 664.392 552.207C664.627 552.077 664.812 551.876 664.946 551.607C665.079 551.334 665.146 550.987 665.146 550.567V544.273ZM672.262 550.499V546.455H673.021V553H672.262V551.913H672.203C672.049 552.249 671.806 552.528 671.474 552.753C671.142 552.974 670.735 553.085 670.255 553.085C669.838 553.085 669.467 552.994 669.143 552.812C668.819 552.628 668.565 552.358 668.38 552.003C668.196 551.648 668.103 551.212 668.103 550.695V546.455H668.862V550.648C668.862 551.159 669.012 551.571 669.314 551.884C669.615 552.193 670.001 552.348 670.473 552.348C670.768 552.348 671.052 552.277 671.325 552.135C671.598 551.993 671.822 551.786 671.998 551.513C672.174 551.237 672.262 550.899 672.262 550.499ZM675.788 544.273V553H675.029V544.273H675.788ZM681.391 553L685.367 545.044V544.989H680.786V544.273H686.202V545.023L682.231 553H681.391Z" fill="black"/>
<line x1="675.18" y1="536" x2="675.18" y2="526" stroke="#BFCBD1"/>
<path d="M771.426 544.273H772.223V550.567C772.22 551.135 772.118 551.609 771.916 551.99C771.714 552.368 771.436 552.651 771.081 552.838C770.726 553.026 770.318 553.119 769.858 553.119C769.406 553.119 769.003 553.036 768.648 552.868C768.292 552.7 768.013 552.464 767.808 552.161C767.606 551.857 767.506 551.5 767.506 551.091H768.29C768.29 551.349 768.358 551.578 768.494 551.777C768.631 551.973 768.817 552.126 769.052 552.237C769.291 552.348 769.56 552.403 769.858 552.403C770.167 552.403 770.439 552.338 770.672 552.207C770.908 552.077 771.092 551.876 771.226 551.607C771.359 551.334 771.426 550.987 771.426 550.567V544.273ZM778.542 550.499V546.455H779.301V553H778.542V551.913H778.483C778.329 552.249 778.087 552.528 777.754 552.753C777.422 552.974 777.015 553.085 776.535 553.085C776.118 553.085 775.747 552.994 775.423 552.812C775.099 552.628 774.845 552.358 774.66 552.003C774.476 551.648 774.383 551.212 774.383 550.695V546.455H775.142V550.648C775.142 551.159 775.292 551.571 775.594 551.884C775.895 552.193 776.281 552.348 776.753 552.348C777.048 552.348 777.332 552.277 777.605 552.135C777.878 551.993 778.102 551.786 778.278 551.513C778.454 551.237 778.542 550.899 778.542 550.499ZM782.068 544.273V553H781.309V544.273H782.068ZM790.117 553.119C789.561 553.119 789.065 553.014 788.63 552.804C788.196 552.594 787.855 552.307 787.607 551.943C787.36 551.577 787.237 551.163 787.237 550.703C787.237 550.342 787.312 550.006 787.463 549.693C787.613 549.378 787.821 549.114 788.085 548.901C788.349 548.685 788.646 548.544 788.975 548.479V548.432C788.546 548.307 788.201 548.061 787.94 547.695C787.678 547.325 787.549 546.906 787.552 546.438C787.549 546.003 787.66 545.614 787.884 545.27C788.109 544.926 788.414 544.655 788.801 544.456C789.19 544.254 789.629 544.153 790.117 544.153C790.603 544.153 791.039 544.254 791.426 544.456C791.812 544.655 792.117 544.926 792.342 545.27C792.569 545.614 792.684 546.003 792.687 546.438C792.684 546.903 792.552 547.322 792.291 547.695C792.029 548.064 791.686 548.31 791.259 548.432V548.479C791.589 548.541 791.884 548.68 792.146 548.896C792.407 549.112 792.615 549.378 792.768 549.693C792.921 550.006 792.998 550.342 792.998 550.703C792.998 551.163 792.873 551.577 792.623 551.943C792.376 552.307 792.035 552.594 791.6 552.804C791.169 553.014 790.674 553.119 790.117 553.119ZM790.117 552.403C790.532 552.403 790.896 552.33 791.208 552.182C791.524 552.031 791.769 551.825 791.946 551.564C792.125 551.303 792.214 551.003 792.214 550.665C792.214 550.315 792.122 550.004 791.937 549.732C791.752 549.456 791.502 549.239 791.187 549.08C790.872 548.918 790.515 548.837 790.117 548.837C789.72 548.837 789.362 548.918 789.044 549.08C788.728 549.239 788.478 549.456 788.294 549.732C788.112 550.004 788.021 550.315 788.021 550.665C788.021 551.003 788.107 551.303 788.281 551.564C788.457 551.825 788.703 552.031 789.018 552.182C789.336 552.33 789.703 552.403 790.117 552.403ZM790.117 548.155C790.458 548.155 790.764 548.082 791.034 547.938C791.303 547.793 791.517 547.595 791.673 547.345C791.832 547.092 791.913 546.805 791.916 546.484C791.913 546.166 791.833 545.885 791.677 545.641C791.521 545.393 791.308 545.202 791.038 545.065C790.771 544.926 790.464 544.857 790.117 544.857C789.771 544.857 789.461 544.926 789.188 545.065C788.919 545.202 788.705 545.393 788.549 545.641C788.396 545.885 788.321 546.166 788.323 546.484C788.321 546.805 788.397 547.092 788.553 547.345C788.713 547.595 788.927 547.793 789.197 547.938C789.47 548.082 789.776 548.155 790.117 548.155Z" fill="black"/>
<line x1="781.46" y1="536" x2="781.46" y2="526" stroke="#BFCBD1"/>
<path d="M877.706 544.273H878.503V550.567C878.5 551.135 878.398 551.609 878.196 551.99C877.994 552.368 877.716 552.651 877.361 552.838C877.006 553.026 876.598 553.119 876.138 553.119C875.686 553.119 875.283 553.036 874.928 552.868C874.572 552.7 874.293 552.464 874.088 552.161C873.886 551.857 873.786 551.5 873.786 551.091H874.57C874.57 551.349 874.638 551.578 874.774 551.777C874.911 551.973 875.097 552.126 875.332 552.237C875.571 552.348 875.84 552.403 876.138 552.403C876.447 552.403 876.719 552.338 876.952 552.207C877.188 552.077 877.372 551.876 877.506 551.607C877.639 551.334 877.706 550.987 877.706 550.567V544.273ZM884.822 550.499V546.455H885.581V553H884.822V551.913H884.763C884.609 552.249 884.367 552.528 884.034 552.753C883.702 552.974 883.296 553.085 882.815 553.085C882.398 553.085 882.027 552.994 881.703 552.812C881.379 552.628 881.125 552.358 880.94 552.003C880.756 551.648 880.663 551.212 880.663 550.695V546.455H881.422V550.648C881.422 551.159 881.572 551.571 881.874 551.884C882.175 552.193 882.561 552.348 883.033 552.348C883.328 552.348 883.612 552.277 883.885 552.135C884.158 551.993 884.382 551.786 884.558 551.513C884.734 551.237 884.822 550.899 884.822 550.499ZM888.348 544.273V553H887.589V544.273H888.348ZM896.325 544.153C896.689 544.156 897.041 544.23 897.382 544.375C897.726 544.517 898.035 544.747 898.311 545.065C898.586 545.381 898.805 545.801 898.967 546.327C899.129 546.849 899.21 547.493 899.21 548.257C899.21 548.97 899.147 549.624 899.022 550.217C898.897 550.811 898.71 551.325 898.46 551.76C898.213 552.192 897.9 552.527 897.522 552.766C897.147 553.001 896.709 553.119 896.206 553.119C895.737 553.119 895.321 553.021 894.957 552.825C894.596 552.629 894.304 552.358 894.079 552.011C893.855 551.662 893.716 551.259 893.662 550.801H894.446C894.522 551.267 894.71 551.651 895.008 551.952C895.309 552.253 895.709 552.403 896.206 552.403C896.919 552.403 897.473 552.071 897.868 551.406C898.262 550.741 898.46 549.795 898.46 548.568H898.405C898.268 548.824 898.089 549.047 897.868 549.237C897.649 549.428 897.399 549.577 897.118 549.685C896.836 549.79 896.539 549.842 896.227 549.842C895.741 549.842 895.297 549.72 894.893 549.476C894.49 549.229 894.167 548.892 893.926 548.466C893.684 548.037 893.564 547.548 893.564 547C893.564 546.483 893.677 546.009 893.905 545.577C894.135 545.142 894.456 544.795 894.868 544.537C895.282 544.276 895.768 544.148 896.325 544.153ZM896.325 544.869C895.947 544.869 895.608 544.966 895.307 545.159C895.008 545.349 894.771 545.607 894.595 545.93C894.422 546.251 894.335 546.608 894.335 547C894.335 547.395 894.422 547.754 894.595 548.078C894.771 548.399 895.008 548.655 895.307 548.845C895.608 549.033 895.947 549.126 896.325 549.126C896.615 549.126 896.885 549.068 897.135 548.952C897.385 548.832 897.601 548.67 897.782 548.466C897.967 548.261 898.106 548.03 898.2 547.771C898.297 547.51 898.335 547.236 898.315 546.949C898.281 546.551 898.174 546.196 897.995 545.884C897.819 545.568 897.586 545.321 897.297 545.142C897.01 544.96 896.686 544.869 896.325 544.869Z" fill="black"/>
<line x1="887.74" y1="536" x2="887.74" y2="526" stroke="#BFCBD1"/>
<path d="M983.986 544.273H984.783V550.567C984.78 551.135 984.678 551.609 984.476 551.99C984.274 552.368 983.996 552.651 983.641 552.838C983.286 553.026 982.878 553.119 982.418 553.119C981.966 553.119 981.563 553.036 981.208 552.868C980.853 552.7 980.573 552.464 980.368 552.161C980.166 551.857 980.066 551.5 980.066 551.091H980.85C980.85 551.349 980.918 551.578 981.054 551.777C981.191 551.973 981.377 552.126 981.612 552.237C981.851 552.348 982.12 552.403 982.418 552.403C982.728 552.403 982.999 552.338 983.232 552.207C983.468 552.077 983.652 551.876 983.786 551.607C983.919 551.334 983.986 550.987 983.986 550.567V544.273ZM991.103 550.499V546.455H991.861V553H991.103V551.913H991.043C990.889 552.249 990.647 552.528 990.314 552.753C989.982 552.974 989.576 553.085 989.095 553.085C988.678 553.085 988.307 552.994 987.983 552.812C987.659 552.628 987.405 552.358 987.22 552.003C987.036 551.648 986.943 551.212 986.943 550.695V546.455H987.702V550.648C987.702 551.159 987.853 551.571 988.154 551.884C988.455 552.193 988.841 552.348 989.313 552.348C989.608 552.348 989.892 552.277 990.165 552.135C990.438 551.993 990.662 551.786 990.838 551.513C991.014 551.237 991.103 550.899 991.103 550.499ZM994.628 544.273V553H993.869V544.273H994.628ZM1002.67 544.273V553H1001.88V545.108H1001.83L999.78 546.467V545.641L1001.84 544.273H1002.67ZM1008.03 553.119C1007.42 553.119 1006.9 552.943 1006.46 552.591C1006.03 552.236 1005.7 551.723 1005.46 551.053C1005.23 550.382 1005.12 549.577 1005.12 548.636C1005.12 547.699 1005.23 546.896 1005.46 546.229C1005.7 545.558 1006.03 545.045 1006.47 544.69C1006.9 544.332 1007.43 544.153 1008.03 544.153C1008.64 544.153 1009.16 544.332 1009.6 544.69C1010.04 545.045 1010.37 545.558 1010.6 546.229C1010.83 546.896 1010.95 547.699 1010.95 548.636C1010.95 549.577 1010.83 550.382 1010.6 551.053C1010.37 551.723 1010.04 552.236 1009.6 552.591C1009.17 552.943 1008.65 553.119 1008.03 553.119ZM1008.03 552.403C1008.71 552.403 1009.23 552.075 1009.61 551.419C1009.99 550.76 1010.18 549.832 1010.18 548.636C1010.18 547.841 1010.09 547.162 1009.92 546.599C1009.75 546.034 1009.5 545.602 1009.18 545.304C1008.86 545.006 1008.48 544.857 1008.03 544.857C1007.37 544.857 1006.84 545.189 1006.46 545.854C1006.08 546.516 1005.89 547.443 1005.89 548.636C1005.89 549.432 1005.98 550.111 1006.15 550.673C1006.32 551.236 1006.57 551.665 1006.88 551.96C1007.2 552.256 1007.59 552.403 1008.03 552.403Z" fill="black"/>
<line x1="994.02" y1="536" x2="994.02" y2="526" stroke="#BFCBD1"/>
<path d="M3.1525 122.051C3.51614 122.054 3.86841 122.128 4.20932 122.273C4.55307 122.415 4.86273 122.645 5.13829 122.963C5.41386 123.278 5.63261 123.699 5.79454 124.224C5.95648 124.747 6.03744 125.39 6.03744 126.155C6.03744 126.868 5.97494 127.521 5.84994 128.115C5.72494 128.709 5.53744 129.223 5.28744 129.657C5.04028 130.089 4.72778 130.425 4.34994 130.663C3.97494 130.899 3.53602 131.017 3.03318 131.017C2.56443 131.017 2.14824 130.919 1.7846 130.723C1.42381 130.527 1.13119 130.255 0.90676 129.909C0.682329 129.559 0.543124 129.156 0.489147 128.699H1.27324C1.34994 129.165 1.53744 129.548 1.83574 129.849C2.13687 130.15 2.53602 130.301 3.03318 130.301C3.74625 130.301 4.30023 129.969 4.69511 129.304C5.09 128.639 5.28744 127.693 5.28744 126.466H5.23204C5.09568 126.721 4.9167 126.944 4.69511 127.135C4.47636 127.325 4.22636 127.474 3.94511 127.582C3.66386 127.687 3.36699 127.74 3.05449 127.74C2.56869 127.74 2.12409 127.618 1.72068 127.373C1.31727 127.126 0.994829 126.79 0.753351 126.363C0.511874 125.934 0.391135 125.446 0.391135 124.898C0.391135 124.38 0.504772 123.906 0.732045 123.474C0.962158 123.04 1.28318 122.693 1.69511 122.434C2.10989 122.173 2.59568 122.045 3.1525 122.051ZM3.1525 122.767C2.77466 122.767 2.43517 122.863 2.13403 123.057C1.83574 123.247 1.59852 123.504 1.42239 123.828C1.24909 124.149 1.16244 124.505 1.16244 124.898C1.16244 125.292 1.24909 125.652 1.42239 125.976C1.59852 126.297 1.83574 126.552 2.13403 126.743C2.43517 126.93 2.77466 127.024 3.1525 127.024C3.44227 127.024 3.71216 126.966 3.96216 126.849C4.21216 126.73 4.42807 126.568 4.60989 126.363C4.79454 126.159 4.93375 125.927 5.0275 125.669C5.12409 125.407 5.16244 125.133 5.14256 124.846C5.10847 124.449 5.00193 124.094 4.82295 123.781C4.64682 123.466 4.41386 123.219 4.12409 123.04C3.83716 122.858 3.51329 122.767 3.1525 122.767ZM8.56017 128.426L8.55165 127.433H8.7221L11.7903 124.352H12.7491L9.71926 127.386L9.65108 127.399L8.56017 128.426ZM7.86983 130.898V122.17H8.62835V130.898H7.86983ZM11.948 130.898L9.28886 127.535L9.83432 127.011L12.9195 130.898H11.948Z" fill="black"/>
<path d="M3.22494 202.817C2.66812 202.817 2.17239 202.712 1.73773 202.501C1.30307 202.291 0.962158 202.004 0.714999 201.641C0.46784 201.274 0.34426 200.861 0.34426 200.401C0.34426 200.04 0.419545 199.703 0.570113 199.391C0.720681 199.075 0.928067 198.811 1.19227 198.598C1.45648 198.382 1.75335 198.242 2.0829 198.176V198.129C1.65392 198.004 1.30875 197.759 1.04739 197.392C0.786022 197.023 0.656761 196.604 0.659601 196.135C0.656761 195.7 0.767556 195.311 0.991988 194.967C1.21642 194.624 1.52182 194.352 1.90818 194.153C2.29739 193.952 2.73631 193.851 3.22494 193.851C3.71074 193.851 4.14682 193.952 4.53318 194.153C4.91954 194.352 5.22494 194.624 5.44937 194.967C5.67665 195.311 5.7917 195.7 5.79454 196.135C5.7917 196.601 5.6596 197.02 5.39824 197.392C5.13687 197.761 4.79312 198.007 4.36699 198.129V198.176C4.69653 198.239 4.99199 198.378 5.25335 198.594C5.51471 198.81 5.7221 199.075 5.87551 199.391C6.02892 199.703 6.10562 200.04 6.10562 200.401C6.10562 200.861 5.98062 201.274 5.73062 201.641C5.48347 202.004 5.14256 202.291 4.7079 202.501C4.27608 202.712 3.78176 202.817 3.22494 202.817ZM3.22494 202.101C3.63972 202.101 4.00335 202.027 4.31585 201.879C4.63119 201.729 4.87693 201.523 5.05307 201.261C5.23204 201 5.32153 200.7 5.32153 200.362C5.32153 200.013 5.2292 199.702 5.04454 199.429C4.85989 199.153 4.60989 198.936 4.29454 198.777C3.9792 198.615 3.62267 198.534 3.22494 198.534C2.82722 198.534 2.46926 198.615 2.15108 198.777C1.83574 198.936 1.58574 199.153 1.40108 199.429C1.21926 199.702 1.12835 200.013 1.12835 200.362C1.12835 200.7 1.215 201 1.38829 201.261C1.56443 201.523 1.81017 201.729 2.12551 201.879C2.44369 202.027 2.81017 202.101 3.22494 202.101ZM3.22494 197.852C3.56585 197.852 3.87125 197.78 4.14114 197.635C4.41102 197.49 4.62409 197.293 4.78034 197.043C4.93943 196.79 5.0204 196.503 5.02324 196.182C5.0204 195.864 4.94085 195.582 4.7846 195.338C4.62835 195.091 4.41528 194.899 4.1454 194.763C3.87835 194.624 3.57153 194.554 3.22494 194.554C2.87835 194.554 2.56869 194.624 2.29597 194.763C2.02608 194.899 1.81301 195.091 1.65676 195.338C1.50335 195.582 1.42807 195.864 1.43091 196.182C1.42807 196.503 1.50477 196.79 1.66102 197.043C1.82011 197.293 2.0346 197.49 2.30449 197.635C2.57722 197.78 2.88403 197.852 3.22494 197.852ZM8.59533 200.226L8.5868 199.233H8.75726L11.8254 196.152H12.7842L9.75442 199.186L9.68624 199.199L8.59533 200.226ZM7.90498 202.698V193.97H8.66351V202.698H7.90498ZM11.9831 202.698L9.32402 199.335L9.86947 198.811L12.9547 202.698H11.9831Z" fill="black"/>
<path d="M0.77892 274.498L4.75477 266.542V266.486H0.173806V265.77H5.59V266.52L1.61841 274.498H0.77892ZM8.00939 272.026L8.00087 271.033H8.17132L11.2395 267.952H12.1983L9.16848 270.986L9.1003 270.999L8.00939 272.026ZM7.31905 274.498V265.77H8.07757V274.498H7.31905ZM11.3972 274.498L8.73808 271.135L9.28354 270.611L12.3688 274.498H11.3972Z" fill="black"/>
<path d="M3.27608 346.417C2.91528 346.414 2.56301 346.342 2.21926 346.2C1.87551 346.055 1.56585 345.823 1.29028 345.505C1.01472 345.184 0.795965 344.761 0.634033 344.235C0.472101 343.709 0.391135 343.063 0.391135 342.296C0.391135 341.586 0.453635 340.935 0.578635 340.344C0.703635 339.754 0.891136 339.242 1.14114 338.81C1.39114 338.379 1.70364 338.045 2.07864 337.809C2.45364 337.57 2.89256 337.451 3.3954 337.451C3.86699 337.451 4.28318 337.549 4.64398 337.745C5.00477 337.938 5.29739 338.208 5.52182 338.555C5.74625 338.901 5.88687 339.3 5.94369 339.752H5.1596C5.08006 339.292 4.89114 338.913 4.59284 338.614C4.29454 338.316 3.8954 338.167 3.3954 338.167C2.67949 338.167 2.12551 338.499 1.73347 339.164C1.34142 339.826 1.14398 340.766 1.14114 341.985H1.19653C1.33574 341.727 1.51472 341.504 1.73347 341.316C1.95506 341.126 2.20648 340.978 2.48773 340.873C2.76898 340.765 3.06443 340.711 3.37409 340.711C3.85989 340.711 4.30449 340.834 4.7079 341.082C5.11131 341.326 5.43375 341.663 5.67523 342.092C5.9167 342.518 6.03744 343.005 6.03744 343.553C6.03744 344.073 5.92239 344.552 5.69227 344.989C5.465 345.427 5.14398 345.775 4.7292 346.033C4.31727 346.292 3.8329 346.42 3.27608 346.417ZM3.27608 345.701C3.65676 345.701 3.99625 345.604 4.29454 345.411C4.59568 345.218 4.8329 344.959 5.00619 344.636C5.17949 344.309 5.26614 343.948 5.26614 343.553C5.26614 343.158 5.17949 342.8 5.00619 342.479C4.8329 342.158 4.59568 341.903 4.29454 341.712C3.99625 341.522 3.65676 341.427 3.27608 341.427C2.98631 341.427 2.71642 341.486 2.46642 341.606C2.21642 341.722 1.99909 341.883 1.81443 342.087C1.63261 342.289 1.49341 342.521 1.39682 342.782C1.30307 343.043 1.26756 343.317 1.29028 343.604C1.32153 344.005 1.42523 344.364 1.60136 344.682C1.78034 344.998 2.01329 345.246 2.30023 345.428C2.59 345.61 2.91528 345.701 3.27608 345.701ZM8.56017 343.826L8.55165 342.833H8.7221L11.7903 339.752H12.7491L9.71926 342.786L9.65108 342.799L8.56017 343.826ZM7.86983 346.298V337.57H8.62835V346.298H7.86983ZM11.948 346.298L9.28886 342.935L9.83432 342.411L12.9195 346.298H11.948Z" fill="black"/>
<path d="M3.08006 418.217C2.59426 418.217 2.1596 418.119 1.77608 417.923C1.3954 417.724 1.09142 417.451 0.864147 417.105C0.639715 416.758 0.520397 416.362 0.506192 415.916H1.2775C1.30307 416.379 1.48489 416.759 1.82295 417.058C2.16102 417.353 2.58006 417.501 3.08006 417.501C3.46926 417.501 3.81585 417.409 4.11983 417.224C4.42381 417.036 4.66102 416.781 4.83148 416.457C5.00477 416.13 5.09142 415.762 5.09142 415.353C5.08858 414.927 4.99625 414.552 4.81443 414.228C4.63261 413.902 4.38545 413.646 4.07295 413.461C3.76329 413.277 3.41528 413.184 3.02892 413.184C2.73631 413.181 2.44937 413.23 2.16812 413.329C1.88687 413.429 1.6525 413.556 1.465 413.713L0.668124 413.61L1.19227 409.37H5.50477V410.086H1.86131L1.51187 413.005H1.55449C1.74767 412.843 1.98204 412.711 2.25761 412.609C2.53602 412.507 2.83006 412.455 3.13971 412.455C3.65392 412.455 4.11557 412.579 4.52466 412.826C4.93659 413.073 5.26187 413.414 5.50051 413.849C5.74199 414.281 5.86273 414.778 5.86273 415.34C5.86273 415.892 5.74199 416.384 5.50051 416.819C5.26187 417.251 4.93233 417.592 4.51187 417.842C4.09426 418.092 3.61699 418.217 3.08006 418.217ZM8.39611 415.626L8.38758 414.633H8.55804L11.6262 411.552H12.585L9.5552 414.586L9.48702 414.599L8.39611 415.626ZM7.70577 418.098V409.37H8.46429V418.098H7.70577ZM11.7839 418.098L9.1248 414.735L9.67025 414.211L12.7555 418.098H11.7839Z" fill="black"/>
<path d="M32.1577 377.499C32.1577 380.445 34.5455 382.833 37.491 382.833C40.4365 382.833 42.8244 380.445 42.8244 377.499C42.8244 374.554 40.4365 372.166 37.491 372.166C34.5455 372.166 32.1577 374.554 32.1577 377.499ZM240.934 164.08L241.846 163.669L241.235 162.315L240.21 163.39L240.934 164.08ZM376.729 464.979L375.817 465.39L376.729 467.411L377.641 465.39L376.729 464.979ZM506.554 176.9L507.44 176.436L506.486 174.617L505.643 176.489L506.554 176.9ZM570.224 298.316L569.338 298.78L569.563 299.208L570.037 299.298L570.224 298.316ZM677.666 318.677L678.431 318.033L678.201 317.761L677.852 317.695L677.666 318.677ZM762.724 419.731L761.959 420.375L762.95 421.552L763.623 420.168L762.724 419.731ZM906.477 124.111L907.199 123.419L906.205 122.383L905.578 123.674L906.477 124.111ZM1028.48 256.838C1028.48 259.784 1030.87 262.172 1033.82 262.172C1036.76 262.172 1039.15 259.784 1039.15 256.838C1039.15 253.893 1036.76 251.505 1033.82 251.505C1030.87 251.505 1028.48 253.893 1028.48 256.838ZM38.2148 378.189L241.658 164.77L240.21 163.39L36.7672 376.809L38.2148 378.189ZM240.023 164.491L375.817 465.39L377.64 464.568L241.846 163.669L240.023 164.491ZM377.641 465.39L507.466 177.311L505.643 176.489L375.817 464.568L377.641 465.39ZM505.669 177.365L569.338 298.78L571.109 297.851L507.44 176.436L505.669 177.365ZM570.037 299.298L677.479 319.66L677.852 317.695L570.41 297.333L570.037 299.298ZM676.9 319.321L761.959 420.375L763.489 419.087L678.431 318.033L676.9 319.321ZM763.623 420.168L907.376 124.548L905.578 123.674L761.824 419.294L763.623 420.168ZM905.755 124.803L1033.09 257.531L1034.54 256.146L907.199 123.419L905.755 124.803Z" fill="#F59E1B"/>
<path d="M31.2204 276.19C31.2204 279.136 33.6083 281.524 36.5538 281.524C39.4993 281.524 41.8871 279.136 41.8871 276.19C41.8871 273.245 39.4993 270.857 36.5538 270.857C33.6083 270.857 31.2204 273.245 31.2204 276.19ZM249.784 376.625L249.358 377.53L250.267 377.958L250.691 377.048L249.784 376.625ZM373.036 111.875L373.95 111.47L373.059 109.455L372.129 111.453L373.036 111.875ZM436.771 255.964L435.856 256.369L435.969 256.624L436.197 256.784L436.771 255.964ZM554.399 338.246L555.163 337.601L555.079 337.501L554.972 337.427L554.399 338.246ZM639.222 438.758L638.458 439.403L639.108 440.174L639.873 439.517L639.222 438.758ZM780.282 317.803L779.869 316.892L779.74 316.951L779.631 317.044L780.282 317.803ZM916.656 255.964L917.229 255.145L916.762 254.818L916.243 255.054L916.656 255.964ZM1028.95 338.246C1028.95 341.191 1031.34 343.579 1034.28 343.579C1037.23 343.579 1039.62 341.191 1039.62 338.246C1039.62 335.3 1037.23 332.913 1034.28 332.913C1031.34 332.913 1028.95 335.3 1028.95 338.246ZM36.1277 277.095L249.358 377.53L250.21 375.721L36.9799 275.286L36.1277 277.095ZM250.691 377.048L373.942 112.297L372.129 111.453L248.877 376.203L250.691 377.048ZM372.121 112.279L435.856 256.369L437.685 255.56L373.95 111.47L372.121 112.279ZM436.197 256.784L553.826 339.065L554.972 337.427L437.344 255.145L436.197 256.784ZM553.635 338.891L638.458 439.403L639.986 438.113L555.163 337.601L553.635 338.891ZM639.873 439.517L780.933 318.562L779.631 317.044L638.571 437.999L639.873 439.517ZM780.695 318.714L917.069 256.875L916.243 255.054L779.869 316.892L780.695 318.714ZM916.083 256.784L1033.71 339.065L1034.86 337.427L917.229 255.145L916.083 256.784Z" fill="#3BB064"/>
<defs>
<clipPath id="clip0_43_576">
<rect width="1018.85" height="510.428" fill="white" transform="translate(25.3065 15.7324)"/>
</clipPath>
</defs>
</svg>
